<svg width="159" height="29" viewBox="0 0 159 29" fill="none" xmlns="http://www.w3.org/2000/svg">
<path d="M37.8875 8.53957L34.6627 5.33706C33.4743 4.15763 31.549 4.15876 30.3622 5.33706L28.2119 7.47225L30.8993 10.1408C31.7899 11.0253 31.7899 12.4589 30.8993 13.3428L29.2857 14.9451C28.1861 16.0351 27.5045 17.5469 27.5058 19.2173C27.5058 20.831 28.143 22.2975 29.1839 23.3789L29.287 23.4808L37.8875 14.9446C39.6691 13.1757 39.6691 10.3084 37.8875 8.53957Z" fill="#F66C0E"/>
<path d="M34.6627 5.33706C34.6622 5.33649 34.6616 5.33595 34.661 5.33595L30.3626 1.06724C29.1745 -0.112188 27.2487 -0.111055 26.062 1.06724L8.86152 18.1471C8.71375 18.2943 8.55452 18.4189 8.38675 18.5321C7.20626 19.3078 5.60116 19.1776 4.56092 18.1471L8.86123 22.4163C10.0492 23.5941 11.9734 23.5941 13.1615 22.4163L30.3622 5.33706C31.549 4.15876 33.4743 4.15763 34.6627 5.33706Z" fill="#F66C0E"/>
<path d="M11.0114 16.0125L8.32401 13.3428C7.43317 12.459 7.43317 11.0253 8.32401 10.1409L9.93656 8.53963C12.3113 6.18191 12.3113 2.35772 9.93656 0L1.3357 8.53963C-0.445235 10.3085 -0.445235 13.1752 1.3357 14.9447L4.56092 18.1471C5.60116 19.1776 7.20626 19.3078 8.38675 18.5321C8.55452 18.4189 8.71375 18.2943 8.86152 18.1471L11.0114 16.0125Z" fill="#F66C0E"/>
<path d="M79.1327 4.16347C78.3615 3.39689 77.45 2.7836 76.4232 2.35651C75.3908 1.91846 74.2717 1.69947 73.0963 1.69947C71.9216 1.69947 70.8018 1.91846 69.7695 2.35651C68.7427 2.7836 67.8311 3.39689 67.0606 4.16347C66.2889 4.9191 65.6753 5.82798 65.2381 6.83548C64.7978 7.86489 64.5738 8.97097 64.5738 10.1318C64.5738 11.3036 64.7978 12.4096 65.2381 13.4281C65.6753 14.4465 66.2889 15.3554 67.0606 16.1111C67.8318 16.8776 68.7434 17.4909 69.7695 17.918C70.8006 18.3561 71.9197 18.5751 73.0963 18.5751C74.273 18.5751 75.3927 18.3561 76.4232 17.918C77.45 17.4909 78.3609 16.8776 79.1327 16.1111C79.9032 15.3554 80.5168 14.4465 80.9552 13.4281C81.3955 12.4096 81.6188 11.3036 81.6188 10.1318C81.6188 8.97097 81.3955 7.86489 80.9552 6.83548C80.5168 5.82798 79.9032 4.9191 79.1327 4.16347ZM77.1064 10.1318C77.1064 10.6793 77.002 11.1941 76.797 11.6759C76.5903 12.1687 76.3017 12.5957 75.9399 12.9462C75.5774 13.3076 75.1466 13.5923 74.6588 13.8004C73.6891 14.2165 72.5315 14.2056 71.561 13.8004C71.0739 13.5923 70.6431 13.3076 70.2806 12.9462C69.9169 12.5848 69.6221 12.1578 69.4051 11.665C69.1931 11.1941 69.0856 10.6793 69.0856 10.1318C69.0856 9.59518 69.1931 9.08046 69.4051 8.60956C69.6221 8.11676 69.9169 7.67879 70.2806 7.3174C70.6431 6.96697 71.0739 6.67127 71.5616 6.47414C72.0449 6.26607 72.5662 6.16748 73.1109 6.16748C73.6536 6.16748 74.1749 6.26607 74.6588 6.47414C75.1472 6.67127 75.5774 6.96697 75.9399 7.3174C76.3012 7.67879 76.5896 8.1058 76.797 8.5986C77.002 9.08045 77.1064 9.59518 77.1064 10.1318Z" fill="#F66C0E"/>
<path d="M117.675 4.16313C116.905 3.39655 115.996 2.78325 114.973 2.34521C113.939 1.89621 112.818 1.66624 111.639 1.66624C110.462 1.66624 109.336 1.8962 108.294 2.33425C107.259 2.78324 106.344 3.39655 105.574 4.16313C104.801 4.91876 104.189 5.82764 103.751 6.83515C103.31 7.86455 103.087 8.97063 103.087 10.1314V28.9456H103.471C105.748 28.9456 107.599 27.1166 107.599 24.8607V17.5783C107.99 17.7863 108.399 17.9725 108.82 18.1258C109.703 18.4434 110.652 18.6076 111.639 18.6076C112.818 18.6076 113.939 18.3776 114.973 17.9286C115.997 17.4906 116.906 16.8773 117.675 16.1107C118.445 15.3551 119.062 14.4572 119.509 13.4387C119.962 12.4093 120.191 11.3032 120.191 10.1314C120.191 8.97063 119.962 7.8536 119.509 6.83515C119.062 5.81669 118.445 4.91876 117.675 4.16313ZM111.639 6.13426C112.181 6.13426 112.702 6.24381 113.184 6.45188C113.678 6.67091 114.114 6.96651 114.479 7.32789C114.845 7.68928 115.141 8.11642 115.358 8.60922C115.571 9.08012 115.679 9.59485 115.679 10.1424C115.679 10.679 115.571 11.1937 115.358 11.6646C115.141 12.1574 114.845 12.5844 114.479 12.9458C114.113 13.3182 113.677 13.603 113.184 13.822C112.225 14.2381 111.065 14.2381 110.083 13.8329C109.594 13.6249 109.161 13.3401 108.798 12.9787C108.433 12.6173 108.138 12.1903 107.92 11.6975C107.707 11.2157 107.599 10.7009 107.599 10.1643V10.1424C107.599 9.59485 107.704 9.08011 107.909 8.59826C108.116 8.11641 108.406 7.67833 108.768 7.32789C109.134 6.96651 109.569 6.67091 110.063 6.45188C110.546 6.24381 111.077 6.13426 111.639 6.13426Z" fill="#F66C0E"/>
<path d="M138.586 4.99626C137.816 3.98875 136.838 3.18926 135.682 2.60885C134.521 2.01749 133.248 1.72175 131.896 1.72175C130.722 1.72175 129.603 1.94088 128.569 2.37892C127.548 2.81697 126.636 3.41917 125.861 4.18575C125.092 4.95233 124.478 5.8504 124.038 6.86886C123.597 7.88731 123.374 9.00434 123.374 10.1652C123.374 11.3369 123.597 12.443 124.038 13.4615C124.478 14.4799 125.092 15.3779 125.861 16.1444C126.636 16.911 127.548 17.5243 128.569 17.9514C129.601 18.3894 130.72 18.6084 131.896 18.6084C132.343 18.6084 132.788 18.5756 133.215 18.5099C134.082 18.3785 134.913 18.1157 135.682 17.7215C136.836 17.1411 137.813 16.3526 138.586 15.3779C138.849 15.0384 139.093 14.6769 139.31 14.3265C139.377 14.206 139.437 14.0966 139.495 13.9761L139.588 13.779L139.425 13.6366C138.667 12.9576 137.692 12.5963 136.674 12.5963C135.809 12.5963 134.98 12.859 134.277 13.3518C134.244 13.3737 134.211 13.3957 134.188 13.4176C133.988 13.56 133.762 13.6914 133.521 13.8009C133.024 14.0199 132.477 14.1404 131.896 14.1404C131.414 14.1404 130.954 14.0637 130.528 13.9104C130.096 13.7461 129.701 13.5271 129.354 13.2533C129.005 12.9686 128.707 12.6401 128.471 12.2459C128.397 12.1364 128.329 12.0158 128.27 11.8844H140.207L140.321 11.2932C140.387 10.9427 140.419 10.5594 140.419 10.1652C140.419 9.39858 140.322 8.66487 140.129 7.9859C139.808 6.83603 139.287 5.82854 138.586 4.99626ZM128.784 8.07346C128.852 7.84348 128.946 7.61348 129.122 7.36161C129.324 7.08783 129.577 6.90166 129.72 6.81405C130.352 6.39791 131.086 6.18989 131.896 6.18989C132.523 6.18989 133.106 6.34318 133.675 6.57316C134.161 6.75933 134.931 7.29593 135.072 8.07346H128.784Z" fill="#F66C0E"/>
<path d="M61.1376 14.2824L60.8105 14.0305C60.0881 13.472 59.2252 13.1544 58.3598 13.1544C57.6854 13.1544 57.0402 13.3077 56.4481 13.6144C56.4069 13.6363 56.3633 13.6581 56.3342 13.68C55.7983 13.9538 55.198 14.0962 54.5502 14.0962C54.0037 14.0962 53.483 13.9866 53.0028 13.7785C52.505 13.5595 52.0691 13.2749 51.706 12.9135C51.3435 12.5521 51.0551 12.1359 50.8489 11.6541C50.6477 11.1832 50.544 10.6794 50.5408 10.1538C50.5445 9.61717 50.6483 9.11342 50.8489 8.65347C51.0551 8.17162 51.3435 7.74449 51.7054 7.3831C52.0691 7.03267 52.505 6.73694 53.0016 6.51792C53.483 6.30985 54.0037 6.21139 54.5496 6.21139C55.1973 6.21139 55.7977 6.3428 56.3203 6.61658C56.362 6.63848 56.4063 6.66031 56.4417 6.68221C57.0395 6.98885 57.6848 7.15317 58.3806 7.15317C59.2245 7.14222 60.0868 6.83554 60.8099 6.27703L61.1376 6.02517C61.3178 5.88281 61.421 5.67471 61.421 5.44473C61.421 5.29142 61.3653 5.12725 61.2647 4.99583C60.4948 4.01023 59.5188 3.22171 58.3648 2.63035C57.2414 2.06089 55.9995 1.75419 54.6705 1.74324H54.5496C53.3919 1.74324 52.2824 1.96224 51.2524 2.40028C50.2283 2.82738 49.3148 3.42971 48.5354 4.19629C47.7586 4.96287 47.1405 5.86094 46.6971 6.87939C46.2592 7.8869 46.0341 8.98198 46.0277 10.1318V10.1647L46.0284 10.4604H46.0347C46.074 11.5008 46.2966 12.4973 46.6977 13.4172C47.1405 14.4356 47.7592 15.3445 48.5361 16.1002C49.3154 16.8667 50.2289 17.48 51.2524 17.9071C52.2824 18.3452 53.3919 18.5642 54.5502 18.5642H54.6749C55.9995 18.5423 57.2414 18.2467 58.3648 17.6772C59.5193 17.0858 60.4955 16.2864 61.2647 15.3008C61.3653 15.1693 61.421 15.0161 61.421 14.8519C61.421 14.6328 61.3178 14.4247 61.1376 14.2824Z" fill="#F66C0E"/>
<path d="M158.716 14.2825L158.388 14.0307C157.665 13.4722 156.803 13.1545 155.938 13.1545C155.264 13.1545 154.618 13.3078 154.025 13.6253C153.984 13.6363 153.94 13.6692 153.912 13.6802C153.377 13.9539 152.775 14.0963 152.128 14.0963C151.582 14.0963 151.06 13.9867 150.582 13.7787C150.084 13.5597 149.647 13.275 149.284 12.9136C148.922 12.5522 148.634 12.1361 148.428 11.6542C148.226 11.1833 148.122 10.6796 148.119 10.1539C148.123 9.61731 148.226 9.11357 148.428 8.65362C148.633 8.17177 148.922 7.74464 149.284 7.38325C149.648 7.03282 150.084 6.73709 150.581 6.51807C151.063 6.31 151.584 6.21154 152.129 6.21154C152.775 6.21154 153.377 6.34295 153.899 6.61673C153.94 6.63863 153.986 6.66046 154.021 6.68236C154.617 6.989 155.264 7.15332 155.959 7.15332C156.803 7.14237 157.666 6.83568 158.389 6.27718L158.716 6.02532C158.896 5.88296 159 5.67485 159 5.44488C159 5.29156 158.944 5.12739 158.843 4.99598C158.074 4.01038 157.097 3.21091 155.944 2.6305C154.821 2.06104 153.579 1.75433 152.249 1.73243H152.129C150.971 1.73243 149.861 1.96239 148.832 2.40043C147.807 2.82753 146.894 3.42986 146.114 4.19643C145.337 4.96301 144.719 5.86109 144.276 6.87954C143.838 7.88705 143.614 8.98213 143.606 10.132V10.1649L143.607 10.4606H143.614C143.654 11.5009 143.875 12.4974 144.276 13.4173C144.719 14.4358 145.337 15.3337 146.115 16.1003C146.894 16.8669 147.809 17.4802 148.831 17.9073C149.861 18.3453 150.971 18.5643 152.129 18.5643H152.253C153.579 18.5424 154.82 18.2468 155.944 17.6773C157.098 17.086 158.074 16.2865 158.842 15.3009C158.944 15.1695 159 15.0163 159 14.852C158.999 14.633 158.896 14.4249 158.716 14.2825Z" fill="#F66C0E"/>
<path d="M96.5091 2.83845C95.827 2.38946 95.0592 2.05007 94.2253 1.842C93.62 1.67773 92.9905 1.60097 92.3553 1.60097H92.3269C91.6898 1.60097 91.0605 1.67773 90.455 1.842C89.6213 2.05007 88.8533 2.38946 88.1682 2.83845C87.1402 3.52837 86.3152 4.42644 85.7149 5.5106C85.1114 6.59476 84.8058 7.7994 84.8058 9.08068V18.6081H89.3176V9.08068C89.3176 8.67549 89.3973 8.29214 89.5541 7.93076C89.7136 7.55842 89.9343 7.22987 90.2109 6.95609C90.4898 6.68231 90.8169 6.46333 91.1831 6.31001C91.886 6.00338 92.7937 6.00338 93.4972 6.31001C93.8635 6.46333 94.1905 6.68231 94.4695 6.95609C94.7459 7.22987 94.9667 7.55842 95.1255 7.93076C95.2837 8.29214 95.3627 8.67549 95.3627 9.08068V18.6081H99.8751V9.08068C99.8751 7.7994 99.5689 6.59476 98.9661 5.5106C98.3657 4.42644 97.5402 3.52837 96.5091 2.83845Z" fill="#F66C0E"/>
</svg>
