<svg width="374" height="211" viewBox="0 0 374 211" fill="none" xmlns="http://www.w3.org/2000/svg">
<path d="M363.111 86.4548L336.821 61.9072C336.819 61.9047 336.813 61.8998 336.808 61.8973L336.821 61.9097C327.135 52.868 311.442 52.8779 301.768 61.9097L284.24 78.2722L306.146 98.7273C313.408 105.507 313.408 116.495 306.146 123.272L292.994 135.552C284.03 143.924 278.474 155.493 278.485 168.282C278.485 180.669 283.679 191.901 292.164 200.215L293.004 201L363.108 135.547C377.63 121.988 377.63 100.011 363.111 86.4548Z" fill="#2B2B2B"/>
<path d="M144.029 143.728L122.123 123.273C114.862 116.496 114.862 105.507 122.123 98.7277L135.268 86.4551C154.625 68.3816 154.625 39.0735 135.268 21L65.1588 86.4551C50.6418 100.012 50.6418 121.989 65.1588 135.548L91.4506 160.09C99.9273 168.007 113.013 168.988 122.636 163.043C124.004 162.199 125.299 161.218 126.504 160.093L144.029 143.728Z" fill="#2B2B2B"/>
<path d="M336.821 61.9098L301.768 29.1823C292.084 20.1405 276.386 20.1505 266.712 29.1823L126.505 160.09C125.3 161.215 124.002 162.198 122.635 163.043C113.012 168.99 99.9285 168.009 91.4492 160.093L126.502 192.82C136.186 201.862 151.871 201.862 161.555 192.82L301.768 61.9123C311.441 52.878 327.134 52.8681 336.821 61.9098Z" fill="#2B2B2B"/>
<path d="M334.662 85.0658L308.931 61.0392C308.928 61.0367 308.923 61.0319 308.918 61.0294L308.931 61.0416C299.45 52.1917 284.09 52.2014 274.622 61.0416L257.466 77.0569L278.907 97.0779C286.014 103.713 286.014 114.469 278.907 121.102L266.033 133.121C257.26 141.315 251.822 152.639 251.832 165.157C251.832 177.281 256.917 188.275 265.221 196.412L266.044 197.18L334.66 133.117C348.874 119.845 348.874 98.3345 334.662 85.0658Z" fill="url(#paint0_linear_5_171)"/>
<path d="M120.23 141.123L98.7887 121.102C91.6816 114.469 91.6816 103.714 98.7887 97.0783L111.654 85.0662C130.601 67.3761 130.601 38.69 111.654 21L43.0332 85.0662C28.8243 98.3349 28.8243 119.846 43.0332 133.117L68.7671 157.139C77.0639 164.888 89.8723 165.848 99.2911 160.029C100.629 159.202 101.897 158.242 103.076 157.141L120.23 141.123Z" fill="url(#paint1_linear_5_171)"/>
<path d="M308.931 61.0417L274.621 29.0086C265.143 20.1588 249.778 20.1685 240.309 29.0086L103.078 157.138C101.898 158.24 100.628 159.202 99.2897 160.028C89.8709 165.85 77.0651 164.89 68.7657 157.141L103.075 189.174C112.554 198.024 127.906 198.024 137.384 189.174L274.621 61.0441C284.09 52.2016 299.449 52.1918 308.931 61.0417Z" fill="url(#paint2_linear_5_171)"/>
<path d="M300.594 88.0949L300.593 88.0946L275.874 65.0128M300.594 88.0949L275.853 64.9933M300.594 88.0949C311.085 97.8903 311.086 113.543 300.591 123.342L240.19 179.736C235.966 173.955 233.553 167.041 233.553 159.638V159.631C233.545 149.844 237.783 140.891 244.829 134.311C244.829 134.31 244.83 134.31 244.83 134.31L257.209 122.752L300.594 88.0949ZM275.874 65.0128C275.935 65.0695 276.089 65.2089 276.28 65.362C276.409 65.4648 276.591 65.6029 276.818 65.753C277.038 65.8989 277.363 66.0976 277.779 66.2917L280.926 59.5544L275.853 64.9933M275.874 65.0128C275.865 65.0044 275.858 64.9979 275.853 64.9933M275.874 65.0128L275.853 64.9933M275.853 64.9933L275.852 64.9946L275.848 64.9913L275.853 64.9933ZM275.848 64.9891C275.847 64.9874 275.846 64.9864 275.845 64.986L275.847 64.9879L275.848 64.9891ZM275.848 64.9891L275.847 64.9906L275.839 64.9829L275.848 64.9891ZM74.7183 164.75L88.1099 177.253C94.3438 183.073 104.635 183.073 110.869 177.253L115.987 182.735L110.869 177.253L209.494 85.173L121.469 126.264L100.589 145.759L88.1117 157.41L88.1113 157.411C86.6051 158.817 84.9896 160.039 83.2936 161.087L74.7183 164.75ZM74.7183 164.75C77.7174 163.964 80.613 162.742 83.2921 161.087L74.7183 164.75ZM242.463 74.913L253.088 64.993L253.089 64.9923C259.311 59.1813 269.602 59.1716 275.838 64.9822L242.463 74.913ZM242.463 74.913L257.21 88.683C257.21 88.6831 257.21 88.6832 257.21 88.6833C267.219 98.0289 267.221 113.407 257.21 122.751L242.463 74.913ZM209.494 85.173L121.469 126.264M275.849 64.9898L278.748 61.8848L275.849 64.99C275.849 64.9899 275.849 64.9898 275.849 64.9898ZM209.853 23.22L99.49 126.263L83.9881 111.788L83.9867 111.787C80.3292 108.373 80.3277 103.065 83.9877 99.6474L96.3608 88.0952C117.758 68.1176 117.758 35.4956 96.3608 15.518L91.2425 10.7393L86.1242 15.5179L20.1305 77.1311L20.1299 77.1316C3.28975 92.8574 3.2905 118.578 20.1294 134.305L20.1309 134.307L44.8781 157.408C44.8785 157.408 44.8789 157.408 44.8793 157.409L44.8776 157.41L77.8732 188.217C89.8708 199.419 109.108 199.419 121.106 188.217L231.473 85.1736L246.973 99.6468L246.973 99.6471C250.633 103.064 250.631 108.373 246.974 111.786L246.973 111.787L234.592 123.347L234.592 123.347C224.763 132.526 218.541 145.355 218.553 159.644C218.555 173.47 224.369 185.929 233.68 195.053L233.745 195.116L233.811 195.178L234.602 195.917L239.721 200.696L244.839 195.917L310.828 134.306C327.673 118.578 327.674 92.8568 310.83 77.1308L286.087 54.0263L286.085 54.0244C286.074 54.0144 286.025 53.9686 285.95 53.9021L253.088 23.22C241.088 12.0165 221.839 12.0295 209.853 23.22L214.972 28.702L209.853 23.22Z" stroke="#0A0A0A" stroke-width="15"/>
<defs>
<linearGradient id="paint0_linear_5_171" x1="188.849" y1="21" x2="188.849" y2="197.18" gradientUnits="userSpaceOnUse">
<stop stop-color="#F27619"/>
<stop offset="1" stop-color="#FF9443"/>
</linearGradient>
<linearGradient id="paint1_linear_5_171" x1="188.849" y1="21" x2="188.849" y2="197.18" gradientUnits="userSpaceOnUse">
<stop stop-color="#F27619"/>
<stop offset="1" stop-color="#FF9443"/>
</linearGradient>
<linearGradient id="paint2_linear_5_171" x1="188.849" y1="21" x2="188.849" y2="197.18" gradientUnits="userSpaceOnUse">
<stop stop-color="#F27619"/>
<stop offset="1" stop-color="#FF9443"/>
</linearGradient>
</defs>
</svg>
